<svg xmlns="http://www.w3.org/2000/svg" xmlns:xlink="http://www.w3.org/1999/xlink" id="Layer_1" x="0px" y="0px" viewBox="0 0 180 116" style="enable-background:new 0 0 180 116;" xml:space="preserve"><style type="text/css">	.st0{fill:#D50032;}	.st1{fill:#FFFFFF;}</style><g>	<g>		<polygon class="st0" points="0,0 0,60.3 0,66.7 0,116 180,116 180,66.7 180,60.3 180,0   "></polygon>	</g>	<g>		<g>			<polygon points="86,14.5 86,60.1 96.2,60.1 96.2,42.4 106.6,42.4 106.6,33.6 96.2,33.6 96.2,23.3 108.1,23.3 108.1,14.5    "></polygon>			<g>				<path d="M121.3,23v11.7h3.6c2.9,0,4.6-1.6,4.6-5.7V28c0-3.7-1.8-5-4.6-5H121.3z M111.1,14.5h15.2c7.8,0,13.4,4.1,13.4,11.8V28     c0,5.7-3,9.3-7.7,10.9l8.8,21.1h-11.4l-8.2-22.4v22.4h-10.2V14.5z"></path>			</g>			<polygon points="23.7,75 23.7,100.2 32.6,100.2 32.6,92.8 69.3,92.8 69.3,82.4 32.6,82.4 32.6,75    "></polygon>			<g>				<path d="M32.3,61.2l12.5,0l0-3.7c0-2.9-1.7-4.7-5.8-4.7h-1.2c-4,0-5.5,1.8-5.5,4.7V61.2z M23.7,71.2l0-14.2     c0-8.4,4.6-13.7,13.4-13.7l2.4,0c8.8,0,13.7,5.3,13.7,13.7l0,4.2l16.1,0l0,10L23.7,71.2z"></path>			</g>			<path d="M30.3,29.6l22.3-3v6L30.3,29.6z M23.7,21.6l0,16l45.6,7.2v-10l-8.2-1.1l0-8.3l8.2-1.1l0-9.9L23.7,21.6z"></path>		</g>		<polygon class="st1" points="87.7,49 93,49 93,50.7 91.3,50.7 91.3,58.6 89.4,58.6 89.4,50.7 87.7,50.7   "></polygon>		<path class="st1" d="M95.7,58.6h-1.9V49h1.9v4.1c0.4-0.6,1.1-1,1.8-1c1.3,0,2.3,0.9,2.3,2.6v4H98v-3.5c0-1-0.4-1.5-1.2-1.5   c-0.7,0-1.2,0.5-1.2,1.5V58.6z"></path>		<path class="st1" d="M103.4,50.9l0.7-1.9h1.9l-1.2,1.9H103.4z M102.6,54.9h2.9c-0.2-0.8-0.7-1.2-1.5-1.2   C103.3,53.6,102.7,54.1,102.6,54.9 M107.3,56h-4.7c0.2,0.8,0.7,1.3,1.5,1.3c0.6,0,1-0.2,1.2-0.6h1.9c-0.4,1.4-1.5,2.2-3.1,2.2   c-1.9,0-3.2-1.4-3.2-3.3c0-2,1.4-3.3,3.2-3.3c1.9,0,3.2,1.4,3.2,3.3C107.3,55.6,107.3,55.8,107.3,56"></path>		<path class="st1" d="M110.7,57.4c0.8,0,1.4-0.4,1.4-1.3v-0.3c-0.9,0.4-2.2,0.3-2.2,1C109.9,57.2,110.2,57.4,110.7,57.4 M110.1,49   h2l1.2,1.9h-1.4l-0.8-0.9l-0.8,0.9h-1.5L110.1,49z M112.2,57.7c-0.4,0.8-1.2,1.1-2,1.1c-1.1,0-2.1-0.6-2.1-1.8   c0-2.7,4.1-1.5,4.1-2.8c0-0.4-0.4-0.7-1-0.7c-0.6,0-1,0.3-1,1h-1.8c0-1.7,1.4-2.3,2.9-2.3c1.5,0,2.8,0.6,2.8,2.1v4.4h-1.8V57.7z"></path>		<path class="st1" d="M118.4,57.2c0.2,0,0.5,0,0.7-0.1v1.5c-0.3,0.1-0.7,0.2-1.1,0.2c-1.4,0-2.4-0.5-2.4-2.3v-2.7h-0.9v-1.5h0.9   v-1.9h1.9v1.9h1.6v1.5h-1.6v2.6C117.5,56.9,117.8,57.2,118.4,57.2"></path>		<path class="st1" d="M122,58.6h-1.9v-6.4h1.8v1.1c0.4-0.8,1.2-1.2,2.1-1.2c0.1,0,0.2,0,0.3,0V54c-0.2-0.1-0.4-0.1-0.7-0.1   c-1.1,0-1.7,0.5-1.7,1.5V58.6z"></path>		<path class="st1" d="M126.6,54.9h2.9c-0.2-0.8-0.7-1.2-1.5-1.2C127.3,53.6,126.7,54.1,126.6,54.9 M131.3,56h-4.7   c0.2,0.8,0.7,1.3,1.5,1.3c0.6,0,1-0.2,1.2-0.6h1.9c-0.4,1.4-1.5,2.2-3.1,2.2c-1.9,0-3.2-1.4-3.2-3.3c0-2,1.4-3.3,3.2-3.3   c1.9,0,3.2,1.4,3.2,3.3C131.3,55.6,131.3,55.8,131.3,56"></path>		<path class="st1" d="M134.9,58.8c-1.7,0-2.9-0.8-2.9-2.2h1.8c0,0.6,0.5,0.9,1.1,0.9c0.6,0,0.9-0.2,0.9-0.6c0-1.3-3.7-0.1-3.7-2.8   c0-1.2,1.1-2,2.6-2c1.6,0,2.8,0.9,2.8,2.2h-1.8c0-0.5-0.4-0.9-1-0.9c-0.5,0-0.8,0.2-0.8,0.6c0,1.1,3.7,0.1,3.7,2.8   C137.6,58,136.4,58.8,134.9,58.8"></path>		<path class="st1" d="M149.8,54.9h2.9c-0.2-0.8-0.7-1.2-1.5-1.2C150.5,53.6,150,54.1,149.8,54.9 M154.5,56h-4.7   c0.2,0.8,0.7,1.3,1.5,1.3c0.6,0,1-0.2,1.2-0.6h1.9c-0.4,1.4-1.5,2.2-3.1,2.2c-1.9,0-3.2-1.4-3.2-3.3c0-2,1.4-3.3,3.2-3.3   c1.9,0,3.2,1.4,3.2,3.3C154.5,55.6,154.5,55.8,154.5,56"></path>		<path class="st1" d="M158.7,57.2c0.2,0,0.5,0,0.7-0.1v1.5c-0.3,0.1-0.7,0.2-1.1,0.2c-1.4,0-2.4-0.5-2.4-2.3v-2.7H155v-1.5h0.9   v-1.9h1.9v1.9h1.6v1.5h-1.6v2.6C157.8,56.9,158.1,57.2,158.7,57.2"></path>		<path class="st1" d="M89.5,65.1V68h1c0.7,0,1.1-0.4,1.1-1.3v-0.3c0-0.9-0.4-1.2-1.1-1.2H89.5z M87.7,63.5h2.9   c1.7,0,2.8,0.9,2.8,2.7v0.6c0,1.8-1.1,2.8-2.8,2.8h-1.1v3.5h-1.8V63.5z"></path>		<path class="st1" d="M96.3,73.1h-1.9v-6.4h1.8v1.1c0.4-0.8,1.2-1.2,2.1-1.2c0.1,0,0.2,0,0.3,0v1.9c-0.2-0.1-0.4-0.1-0.7-0.1   c-1.1,0-1.7,0.5-1.7,1.5V73.1z"></path>		<path class="st1" d="M104,69.9c0-1-0.6-1.7-1.5-1.7c-0.9,0-1.5,0.7-1.5,1.7c0,1,0.7,1.7,1.5,1.7C103.4,71.6,104,70.9,104,69.9    M99.2,69.9c0-2,1.4-3.3,3.3-3.3c1.9,0,3.3,1.4,3.3,3.3c0,2-1.4,3.3-3.3,3.3C100.6,73.3,99.2,71.9,99.2,69.9"></path>		<path class="st1" d="M108.4,69.9c0,1,0.6,1.7,1.5,1.7c0.9,0,1.5-0.7,1.5-1.7c0-1-0.6-1.7-1.5-1.7C109,68.2,108.4,68.9,108.4,69.9    M111.5,72.3c-0.5,0.6-1.1,0.9-1.9,0.9c-1.7,0-3-1.3-3-3.3c0-2,1.2-3.3,3-3.3c0.8,0,1.4,0.3,1.9,0.9v-4h1.9v9.6h-1.8V72.3z"></path>		<path class="st1" d="M118.9,72.2c-0.4,0.7-1,1-1.8,1c-1.3,0-2.3-0.9-2.3-2.6v-4h1.9v3.5c0,1,0.4,1.5,1.1,1.5   c0.7,0,1.1-0.5,1.1-1.5v-3.5h1.9v6.4h-1.8V72.2z"></path>		<path class="st1" d="M125.1,68.2c-0.9,0-1.5,0.7-1.5,1.7c0,1,0.6,1.7,1.5,1.7c0.7,0,1.3-0.4,1.4-1.2h1.9c-0.1,1.7-1.4,2.9-3.3,2.9   c-1.9,0-3.3-1.4-3.3-3.3c0-2,1.4-3.3,3.3-3.3c1.8,0,3.1,1.1,3.3,2.7h-1.9C126.4,68.6,125.8,68.2,125.1,68.2"></path>		<path class="st1" d="M132.6,71.7c0.2,0,0.5,0,0.7-0.1v1.5c-0.3,0.1-0.7,0.2-1.1,0.2c-1.4,0-2.4-0.5-2.4-2.3v-2.7h-0.9v-1.5h0.9   v-1.9h1.9v1.9h1.6v1.5h-1.6v2.6C131.7,71.4,132,71.7,132.6,71.7"></path>		<path class="st1" d="M135.8,69.3h2.9c-0.2-0.8-0.7-1.2-1.5-1.2C136.5,68.1,135.9,68.5,135.8,69.3 M140.5,70.4h-4.7   c0.2,0.8,0.7,1.3,1.5,1.3c0.6,0,1-0.2,1.2-0.6h1.9c-0.4,1.4-1.5,2.2-3.1,2.2c-1.9,0-3.2-1.4-3.2-3.3c0-2,1.4-3.3,3.2-3.3   c1.9,0,3.2,1.4,3.2,3.3C140.5,70.1,140.5,70.3,140.5,70.4"></path>		<path class="st1" d="M145.7,72.2c-0.4,0.7-1,1-1.8,1c-1.3,0-2.3-0.9-2.3-2.6v-4h1.9v3.5c0,1,0.4,1.5,1.1,1.5   c0.7,0,1.1-0.5,1.1-1.5v-3.5h1.9v6.4h-1.8V72.2z"></path>		<path class="st1" d="M150.8,73.1H149v-6.4h1.8v1.1c0.4-0.8,1.2-1.2,2.1-1.2c0.1,0,0.2,0,0.3,0v1.9c-0.2-0.1-0.4-0.1-0.7-0.1   c-1.1,0-1.7,0.5-1.7,1.5V73.1z"></path>		<path class="st1" d="M156.7,73.3c-1.7,0-2.9-0.8-2.9-2.2h1.8c0,0.6,0.5,0.9,1.1,0.9c0.6,0,0.9-0.2,0.9-0.6c0-1.3-3.7-0.1-3.7-2.8   c0-1.2,1.1-2,2.6-2c1.6,0,2.8,0.9,2.8,2.2h-1.8c0-0.5-0.4-0.9-1-0.9c-0.5,0-0.8,0.2-0.8,0.6c0,1.1,3.7,0.1,3.7,2.8   C159.4,72.5,158.2,73.3,156.7,73.3"></path>		<path class="st1" d="M91.6,84l-0.8-4.6L90.1,84H91.6z M89.4,78h2.8l1.8,9.6h-1.8l-0.3-2h-2.1l-0.3,2h-1.8L89.4,78z"></path>		<path class="st1" d="M97.3,87.7c-1.7,0-2.9-0.8-2.9-2.2h1.8c0,0.6,0.5,0.9,1.1,0.9c0.6,0,0.9-0.2,0.9-0.6c0-1.3-3.7-0.1-3.7-2.8   c0-1.2,1.1-2,2.6-2c1.6,0,2.8,0.9,2.8,2.2h-1.8c0-0.5-0.4-0.9-1-0.9c-0.5,0-0.8,0.2-0.8,0.6c0,1.1,3.7,0.1,3.7,2.8   C100.1,87,98.9,87.7,97.3,87.7"></path>		<path class="st1" d="M103.7,87.7c-1.7,0-2.9-0.8-2.9-2.2h1.8c0,0.6,0.5,0.9,1.1,0.9c0.6,0,0.9-0.2,0.9-0.6c0-1.3-3.7-0.1-3.7-2.8   c0-1.2,1.1-2,2.6-2c1.6,0,2.8,0.9,2.8,2.2h-1.8c0-0.5-0.4-0.9-1-0.9c-0.5,0-0.8,0.2-0.8,0.6c0,1.1,3.7,0.1,3.7,2.8   C106.4,87,105.2,87.7,103.7,87.7"></path>		<path class="st1" d="M111.9,84.4c0-1-0.6-1.7-1.5-1.7c-0.9,0-1.5,0.7-1.5,1.7c0,1,0.7,1.7,1.5,1.7   C111.3,86.1,111.9,85.4,111.9,84.4 M107.1,84.4c0-2,1.4-3.3,3.3-3.3c1.9,0,3.3,1.4,3.3,3.3s-1.4,3.3-3.3,3.3   C108.5,87.7,107.1,86.4,107.1,84.4"></path>		<path class="st1" d="M117.7,82.7c-0.9,0-1.5,0.7-1.5,1.7c0,1,0.6,1.7,1.5,1.7c0.7,0,1.3-0.4,1.4-1.2h1.9c-0.1,1.7-1.4,2.9-3.3,2.9   c-1.9,0-3.3-1.4-3.3-3.3c0-2,1.4-3.3,3.3-3.3c1.8,0,3.1,1.1,3.3,2.7H119C119,83.1,118.4,82.7,117.7,82.7"></path>		<path class="st1" d="M122,81.2h1.9v6.4H122V81.2z M121.8,79c0-0.6,0.5-1.1,1.1-1.1c0.6,0,1.1,0.5,1.1,1.1c0,0.6-0.5,1.1-1.1,1.1   C122.3,80.1,121.8,79.6,121.8,79"></path>		<path class="st1" d="M127.5,79.9l0.7-1.9h1.9l-1.2,1.9H127.5z M126.7,83.8h2.9c-0.2-0.8-0.7-1.2-1.5-1.2   C127.3,82.6,126.8,83,126.7,83.8 M131.3,84.9h-4.7c0.2,0.8,0.7,1.3,1.5,1.3c0.6,0,1-0.2,1.2-0.6h1.9c-0.4,1.4-1.5,2.2-3.1,2.2   c-1.9,0-3.2-1.4-3.2-3.3s1.4-3.3,3.2-3.3c1.9,0,3.2,1.4,3.2,3.3C131.4,84.6,131.4,84.7,131.3,84.9"></path>		<path class="st1" d="M135,87.7c-1.7,0-2.9-0.8-2.9-2.2h1.8c0,0.6,0.5,0.9,1.1,0.9c0.6,0,0.9-0.2,0.9-0.6c0-1.3-3.7-0.1-3.7-2.8   c0-1.2,1.1-2,2.6-2c1.6,0,2.8,0.9,2.8,2.2h-1.8c0-0.5-0.4-0.9-1-0.9c-0.5,0-0.8,0.2-0.8,0.6c0,1.1,3.7,0.1,3.7,2.8   C137.7,87,136.5,87.7,135,87.7"></path>		<path class="st1" d="M71.5,55c0-3.4,2.6-6.1,6.2-6.1c3.6,0,6.2,2.7,6.2,6.1c0,3.5-2.6,6.2-6.2,6.2C74.1,61.2,71.5,58.5,71.5,55"></path>	</g></g></svg>